<svg width="60" height="60" xmlns="http://www.w3.org/2000/svg" version="1.0"><path stroke="#000" d="M30.516 15.794c-1.089.402-2.082.939-3.083 1.417-.34.163-.728.422-1.045.5-.805.202-2.066-.15-3.093-.186-2.567-.091-4.229.097-6.339.416-.987.148-2.01.287-2.876.541-.74.218-1.59.703-2.418 1.111-1.31.645-2.201 1.253-3.222 2.03-1.706 1.3-2.78 2.936-4.029 4.733-.545.784-1.33 1.953-1.37 2.881C2.32 30.331 1.223 31 .948 32.6c.385.937 1.381.104 1.982-.208.496-.259 1.03-.568 1.47-.692 2.288-.644 5.476.277 7.703-.313.79-.21 1.473-.632 2.258-.811.744-.17 1.314.131 1.845.36.282.123.58.288.835.42 1.66.857 3.318 1.766 5.546 2.108 1.788.275 3.341-.249 4.795-.532.369-.072.845-.045 1.125-.36-1.16-.262-2.123-.71-3.334-1.186-1.592-.626-2.828-1.05-3.429-2.306.712-.187 1.537-.049 2.279.081.81.142 1.613.274 2.39.402 3.28.54 5.75 1.447 8.247 2.623 1.213.57 2.331 1.366 3.36 2.033 2.105 1.369 3.903 3.068 5.598 4.92.768.837 1.453 1.887 2.285 2.887.364.438.73.926 1.118 1.466.372.513.939 1.142 1.017 1.59.089.496-.174 1.04-.307 1.581-.229.941-.398 1.95-.321 2.917.1 1.25.38 2.466.965 3.413.254-.226.358-.624.489-.988.641-.82 1.495-1.64 1.516-3.005 1.754.906 5.159.83 7.203.807.615-.007 1.241.058 1.75-.181-1.074-.623-1.862-1.41-2.795-2.214-1.412-1.215-2.58-2.239-4.662-2.889-.675-.21-1.447-.324-1.817-.715-.284-.298-.37-.96-.515-1.597a68.325 68.325 0 0 0-1.342-5.001c-1.35-4.359-3.41-8.233-6.151-11.241-1.39-1.526-3.048-2.768-4.837-4.15-.305-.479-.878-1.125-.996-1.856-.121-.752.097-1.412.562-1.918 1.017-.742 2.615-.824 3.306-1.935-.903-.65-2.024-.84-3.124-.947-2.377-.23-4.603-.051-6.446.631z" fill="none"/></svg>