<svg version="1.0" xmlns="http://www.w3.org/2000/svg" width="800" height="800"><path d="M498.9 296c-22 5.6-41.6 23.9-48.5 45.4-8.6 26.8-.7 59.2 25.1 103.6 4.3 7.4 10 18 12.7 23.5l4.9 10-3.4 1.1c-15.6 5.4-26.4 17.6-28.3 32.2l-.7 5.3 5.4-.3 5.4-.3.7-4.8c.8-5.9 4-12.6 7.5-15.8 2.4-2.1 2.3-2-.5 1.6-3.7 4.7-6.2 11.3-6.2 16.2 0 4.8 2.3 3.8 3.2-1.5.4-2.2 1.3-5.3 2.1-6.9 3.4-6.4 16-15 17.9-12.1 1.9 2.9-2.3 17.9-5.8 20.9-.8.6-1.4 1.5-1.4 2s12.8.9 28.4.9h28.3l8.2-17.6c9.1-19.6 13.8-28.1 20.7-37.3 11.1-14.7 27.4-23.2 41.8-21.6 6.3.7 15 3.6 18.2 6 1 .8-.7.4-3.8-1-25.4-11.4-49.1 2-67.1 38-5.8 11.6-14.7 31.4-14.7 32.6 0 .6 2.3.9 5.2.7l5.2-.3 2.3-5.9c1.2-3.2 2.5-6.1 2.7-6.3.3-.3 4.3 1.1 8.9 3.1 12.5 5.4 21.7 7.2 29.5 5.8 8.4-1.4 13.8-5 16.4-10.9 5.1-11.5-2-23-15.4-24.8l-4.3-.6 5.3 1.9c8.9 3.2 12.8 8.4 11.9 15.9-1.1 10.3-11.9 14.8-25.8 10.7-4.5-1.3-16.9-7.2-21.7-10.2-1.8-1.2.4-6.8 2.8-7.5 2.5-.7 6.1-6.6 5.8-9.7-.3-3.4 1-5.2 5.4-7.2 3.1-1.5 8.2-7.8 6.2-7.8-.4 0-.1-.6.5-1.4.6-.7 3-1.6 5.2-2 2.7-.4 5.2-1.8 7.6-4.1 2-1.9 4.1-3.5 4.7-3.6 4.7-.3 9.6-.8 12.3-1.4 2.5-.6 3.8-.2 5.9 1.4 1.6 1.3 4.1 2.1 6.4 2.1 7.4 0 16.7 11.1 20.5 24.4 1.4 4.8 1.7 8.6 1.3 18.5l-.5 12.6 3.4-7c10.6-22.5 7.2-46.7-9-62.9-6-5.9-17.2-12.6-21.1-12.6-1 0-1.4-.5-1.1-1 .3-.6 1.4-1 2.3-1 3.6 0 14.5-6.2 19.8-11.1 9.8-9.3 14.4-20.3 14.4-34.5 0-18.4-10-34.8-25.8-42.2-5.1-2.4-6.9-2.7-16.3-2.7-10.1 0-10.8.1-18 3.7-16.4 8.1-25.6 23.3-21.9 36.3 1.6 5.7 7.9 13 12.6 14.5 7.5 2.5 18.3.4 22.2-4.3.7-.8-.7-.5-3.5.9-8.8 4.5-18.4 2.1-23.6-5.8-6.9-10.7-.4-25 14.9-32.3 5-2.5 7.2-2.9 14.4-3 7.6 0 9.1.3 13.9 3 6.1 3.4 11.1 9 14.3 16.1 3.4 7.5 3.1 18.9-.6 27.2-3.2 6.9-8.6 12.4-15 15.3-2.3 1-9.2 2.3-15.3 3-9 1-11 1.5-10.6 2.7.5 1.2-.5 1.3-6.4.7-5.4-.5-8.8-.2-15.7 1.4-4.8 1.2-9.4 2.5-10.2 2.9-.8.4 5.4.7 13.8.6l15.3-.2-15 .8c-16.7.9-24.6 2.8-32.9 8-6.7 4.3-16 13.3-21.3 20.7-2.5 3.5-4.6 6.3-4.8 6.3-.2 0-1.9-2.8-3.9-6.3-1.9-3.4-8.5-13.9-14.6-23.2-11.9-18.3-20.3-34.2-24.6-47-2.1-6.3-2.7-10-2.8-17.5-.1-8.8.1-10 3.2-16.2 4.3-8.7 13.8-17.7 21.9-20.8 7.4-2.8 19.3-2.5 26.5.8 5.7 2.5 14.1 10.1 17.3 15.7 6.3 11 8.4 27.9 4.4 36.2-4.1 8.5-15.6 15.3-25.8 15.3-10.3 0-12.8-6.7-7.1-19l3-6.5-3 3.5c-9.8 11.4-9.2 23.5 1.4 27.5 6.7 2.6 19.2 1.7 26.8-1.7 6.7-3.1 14-9.5 17.4-15.4 3.6-6.2 5.7-17.3 4.9-26.3-2-21.2-10.9-37.3-26.3-47.4-10.8-7.2-16.7-9-30.7-9.3-6.6-.2-13.6.1-15.6.6zm-16.2 29.9c-10.8 10-15.2 23-14.4 42.6.8 18.6 5.3 32.9 16.3 51.6 17.9 30.6 32.1 66.5 27.4 69.4-.6.3-1-.4-1-1.7-.1-7.7-14.8-43.4-24.8-60-10.7-17.9-16-31.2-18.9-47.3-1.9-11.3-1.3-25.4 1.6-34.6 2.6-8.3 8.9-17.8 14.3-21.8 5.9-4.4 5.8-3.8-.5 1.8zm6.3 4.5c0 1.6-1.8 3.1-2.7 2.2-.8-.8.5-3.6 1.7-3.6.5 0 1 .6 1 1.4zm-8 9.6c0 1.1-.6 2-1.4 2-1.8 0-2.9-1.6-2.1-3 1.1-1.8 3.5-1.1 3.5 1zm-4.7 9.6c.9 1-.4 3.4-1.9 3.4-.8 0-1.4-.9-1.4-2 0-1.9 1.9-2.7 3.3-1.4zm.7 12.9c2.6 3.1-1.8 7.1-4.7 4.3-1.2-1.2-1.3-2-.4-3.7 1.4-2.5 3.4-2.7 5.1-.6zm2.9 13.9c1.7 2 .2 4.6-2.5 4.6-2.9 0-4.1-2.4-2.4-4.5 1.6-1.9 3.4-1.9 4.9-.1zM652 378c0 1.1-.4 2-1 2-.5 0-1-.9-1-2s.5-2 1-2c.6 0 1 .9 1 2zm-1 9.5c0 1.4-.4 2.5-1 2.5-1.1 0-1.4-3.3-.3-4.3 1.1-1.1 1.3-.8 1.3 1.8zm-166.6 1.7c2.1 3 .4 6-3.2 5.6-3-.3-4.2-3.9-2.2-6.4 1.7-2 3.6-1.7 5.4.8zm163.6 6.7c0 2.2-1.5 3.5-3 2.6-.7-.4-.7-1.3 0-2.6 1.4-2.5 3-2.5 3 0zM492.5 404c1.5 1.7 1.6 2.4.7 4.6-1 2-1.8 2.5-4.4 2.2-4-.4-5.6-2.8-4-6.2 1.4-3.2 5.1-3.5 7.7-.6zm148.5.4c0 1.6-2.7 2.9-4.1 2-1.3-.8.9-3.4 2.7-3.4.8 0 1.4.6 1.4 1.4zm-10.3 5.3c.6 1.7-3 3.4-4.8 2.2-1.2-.8-1.1-1.2.6-2.4 2.1-1.6 3.7-1.5 4.2.2zm-12.2 3.3c0 1.8-5.2 2.7-6.7 1.2-1.7-1.7.2-3.3 3.5-3 2 .2 3.2.8 3.2 1.8zm8.2 3.6c-.3.3-1.2.4-1.9.1-.8-.3-.5-.6.6-.6 1.1-.1 1.7.2 1.3.5zm-4.4 1.1c-.7.2-2.1.2-3 0-1-.3-.4-.5 1.2-.5 1.7 0 2.4.2 1.8.5zm-9.5 1c-2.1.2-5.7.2-8 0-2.4-.2-.7-.4 3.7-.4s6.3.2 4.3.4zm-110 5.2c.4 2.8-1.4 5.1-4.2 5.1-3 0-4.6-1.8-4.6-5.2 0-5.5 8-5.4 8.8.1zm11.3 17.2c1.8 3.4-.3 6.9-4.1 6.9-2.2 0-3.3-.6-4.1-2.4-1.6-3.5.3-6.6 4.1-6.6 2 0 3.3.7 4.1 2.1zm8.4 19.6c-.4 1-1.2 3-1.7 4.5-1.5 4.3-5.8 3-5.8-1.7 0-2.9 1.9-4.5 5.3-4.5 2.4 0 2.8.3 2.2 1.7zM491 484.5c0 .8-.4 1.5-.9 1.5-1.3 0-2.2-1.6-1.4-2.4 1.1-1.1 2.3-.6 2.3.9zm-7.5 3.4c.7 1.2-1.2 2.4-2.5 1.6-1.1-.7-.4-2.5 1-2.5.5 0 1.1.4 1.5.9zm-7.1 5.6c.3.9-.1 1.8-1 2.2-1.9.7-2.8-.2-2.1-2.2.8-1.9 2.3-1.9 3.1 0zm-4.8 9.4c-.9 1.4-3.3 1.4-4.1.1-.4-.6-.1-1.8.6-2.6 1.1-1.3 1.4-1.3 2.7 0 .8.8 1.1 1.9.8 2.5zm-2.6 6.7c1.1 1.2 1 1.8-.3 3.2-1.6 1.5-1.8 1.5-3.4 0-1.3-1.4-1.4-2-.3-3.2.7-.9 1.6-1.6 2-1.6.4 0 1.3.7 2 1.6z"/></svg>