<?xml version="1.0" standalone="no"?>
<!DOCTYPE svg PUBLIC "-//W3C//DTD SVG 20010904//EN"
 "http://www.w3.org/TR/2001/REC-SVG-20010904/DTD/svg10.dtd">
<svg version="1.0" xmlns="http://www.w3.org/2000/svg"
 width="800" height="800" viewBox="0 0 800 800"
 preserveAspectRatio="xMidYMid meet">

<g transform="translate(0,800) scale(0.1,-0.1)"
fill="#000000" stroke="none">
<path d="M2710 5155 c-114 -32 -211 -127 -224 -220 l-6 -40 16 44 c43 116 197
191 329 162 103 -23 175 -116 175 -227 0 -50 -33 -144 -72 -205 l-36 -56 -69
-6 c-253 -21 -520 -232 -639 -506 -42 -94 -43 -120 -4 -61 72 109 229 240 355
296 51 22 162 53 191 54 6 0 -4 -38 -24 -87 -33 -80 -36 -96 -35 -183 0 -148
53 -265 187 -421 l65 -76 -29 -28 c-27 -26 -31 -27 -73 -17 -24 6 -119 18
-210 27 -92 8 -188 20 -213 25 -98 22 -164 63 -215 133 -37 52 -37 37 1 -29
68 -119 144 -155 503 -234 l97 -22 -28 -36 c-50 -63 -99 -145 -127 -213 -15
-35 -28 -65 -30 -67 -1 -1 -27 9 -57 23 -145 66 -346 32 -519 -86 -40 -28 -85
-57 -100 -65 -35 -18 -140 -18 -182 0 -69 28 -162 171 -186 285 -21 101 6 179
79 229 91 62 236 -25 248 -148 5 -59 -13 -94 -61 -116 l-32 -15 30 6 c94 19
132 100 100 210 -22 77 -106 165 -178 184 -135 38 -282 -44 -339 -188 -33 -84
-31 -237 5 -346 34 -104 89 -194 154 -256 l52 -49 248 0 248 0 83 42 c105 53
181 62 237 28 20 -12 43 -33 52 -46 l15 -24 377 2 376 3 3 73 c3 85 -19 229
-48 304 -14 38 -17 55 -9 65 19 22 27 15 49 -44 34 -88 60 -229 60 -320 0 -82
0 -83 25 -83 19 0 25 5 25 20 0 29 44 70 75 70 31 0 75 -41 75 -70 0 -34 27
-23 34 15 10 52 -11 224 -40 323 -26 91 -79 213 -115 263 l-20 29 36 60 c96
158 135 288 135 447 0 123 -19 204 -71 304 -70 135 -199 242 -350 291 l-66 21
26 61 c22 53 26 75 26 171 0 125 -15 172 -79 243 -68 75 -196 107 -306 77z
m330 -255 c0 -5 -4 -10 -10 -10 -5 0 -10 5 -10 10 0 6 5 10 10 10 6 0 10 -4
10 -10z m-5 -109 c3 -5 1 -12 -5 -16 -5 -3 -10 1 -10 9 0 18 6 21 15 7z m-25
-71 c0 -5 -4 -10 -10 -10 -5 0 -10 5 -10 10 0 6 5 10 10 10 6 0 10 -4 10 -10z
m-20 -65 c0 -8 -9 -15 -20 -15 -11 0 -20 7 -20 15 0 8 9 15 20 15 11 0 20 -7
20 -15z m-183 -291 c7 -18 -17 -38 -31 -24 -11 11 -1 40 14 40 6 0 13 -7 17
-16z m184 -19 c150 -77 216 -216 175 -375 -17 -65 -47 -125 -85 -170 l-21 -25
-76 80 c-99 105 -147 198 -146 287 0 94 52 228 88 228 8 0 37 -11 65 -25z
m-205 -66 c3 -6 -1 -18 -10 -27 -15 -15 -17 -15 -32 0 -19 19 -11 38 16 38 10
0 22 -5 26 -11z m-21 -119 c0 -30 -35 -40 -55 -15 -10 12 -10 18 0 30 20 25
55 15 55 -15z m26 -120 c37 -20 18 -80 -26 -80 -12 0 -26 5 -33 12 -25 25 -8
78 26 78 7 0 22 -5 33 -10z m77 -162 c7 -7 12 -21 12 -33 0 -12 -5 -26 -12
-33 -7 -7 -21 -12 -33 -12 -12 0 -26 5 -33 12 -7 7 -12 21 -12 33 0 12 5 26
12 33 7 7 21 12 33 12 12 0 26 -5 33 -12z m132 -143 c9 -11 6 -21 -15 -50 -32
-41 -49 -44 -71 -10 -15 23 -15 27 0 50 19 28 66 34 86 10z m345 -366 c9 -28
-24 -73 -57 -77 -14 -2 -31 5 -40 15 -16 17 -15 21 18 61 29 35 39 40 54 32
10 -6 22 -20 25 -31z m-925 -207 c41 -34 -15 -72 -76 -52 -41 14 -49 35 -21
55 29 20 70 19 97 -3z m1010 -2 c11 -11 20 -29 20 -40 0 -26 -34 -60 -62 -60
-50 0 -76 63 -41 102 21 24 58 23 83 -2z m-1170 -40 c0 -18 -54 -51 -79 -48
-20 2 -26 9 -26 28 0 20 7 27 35 36 35 12 70 4 70 -16z m319 -4 c9 -9 11 -24
7 -41 -6 -24 -10 -27 -38 -21 -54 11 -91 64 -55 80 19 8 70 -3 86 -18z m509
-189 l-3 -92 -20 40 c-23 48 -26 163 -5 210 l13 30 9 -48 c5 -27 7 -90 6 -140z
m-1014 137 c41 -16 5 -64 -48 -64 -36 0 -35 35 2 54 33 18 27 17 46 10z m438
-47 c39 -20 64 -40 67 -52 3 -19 2 -19 -15 -3 -34 30 -118 67 -169 73 -57 7
-131 -11 -288 -69 -97 -36 -183 -46 -229 -28 -10 4 20 7 65 7 68 0 94 5 152
29 154 64 198 76 277 76 67 0 84 -4 140 -33z m-579 -32 c1 -5 -10 -11 -25 -13
-16 -2 -28 1 -28 7 0 20 49 26 53 6z m-84 -31 c14 -12 -19 -1 -35 12 -18 14
-18 14 6 3 14 -6 27 -13 29 -15z"/>
<path d="M4989 5040 c-220 -56 -416 -239 -485 -454 -86 -268 -7 -592 251
-1036 43 -74 100 -180 127 -235 l49 -100 -34 -11 c-156 -54 -264 -176 -283
-322 l-7 -53 54 3 54 3 7 48 c8 59 40 126 75 158 24 21 23 20 -5 -16 -37 -47
-62 -113 -62 -162 0 -48 23 -38 32 15 4 22 13 53 21 69 34 64 160 150 179 121
19 -29 -23 -179 -58 -209 -8 -6 -14 -15 -14 -20 0 -5 128 -9 284 -9 l283 0 82
176 c91 196 138 281 207 373 111 147 274 232 418 216 63 -7 150 -36 182 -60
10 -8 -7 -4 -38 10 -254 114 -491 -20 -671 -380 -58 -116 -147 -314 -147 -326
0 -6 23 -9 52 -7 l52 3 23 59 c12 32 25 61 27 63 3 3 43 -11 89 -31 125 -54
217 -72 295 -58 84 14 138 50 164 109 51 115 -20 230 -154 248 l-43 6 53 -19
c89 -32 128 -84 119 -159 -11 -103 -119 -148 -258 -107 -45 13 -169 72 -217
102 -18 12 4 68 28 75 25 7 61 66 58 97 -3 34 10 52 54 72 31 15 82 78 62 78
-4 0 -1 6 5 14 6 7 30 16 52 20 27 4 52 18 76 41 20 19 41 35 47 36 47 3 96 8
123 14 25 6 38 2 59 -14 16 -13 41 -21 64 -21 74 0 167 -111 205 -244 14 -48
17 -86 13 -185 l-5 -126 34 70 c106 225 72 467 -90 629 -60 59 -172 126 -211
126 -10 0 -14 5 -11 10 3 6 14 10 23 10 36 0 145 62 198 111 98 93 144 203
144 345 0 184 -100 348 -258 422 -51 24 -69 27 -163 27 -101 0 -108 -1 -180
-37 -164 -81 -256 -233 -219 -363 16 -57 79 -130 126 -145 75 -25 183 -4 222
43 7 8 -7 5 -35 -9 -88 -45 -184 -21 -236 58 -69 107 -4 250 149 323 50 25 72
29 144 30 76 0 91 -3 139 -30 61 -34 111 -90 143 -161 34 -75 31 -189 -6 -272
-32 -69 -86 -124 -150 -153 -23 -10 -92 -23 -153 -30 -90 -10 -110 -15 -106
-27 5 -12 -5 -13 -64 -7 -54 5 -88 2 -157 -14 -48 -12 -94 -25 -102 -29 -8 -4
54 -7 138 -6 l153 2 -150 -8 c-167 -9 -246 -28 -329 -80 -67 -43 -160 -133
-213 -207 -25 -35 -46 -63 -48 -63 -2 0 -19 28 -39 63 -19 34 -85 139 -146
232 -119 183 -203 342 -246 470 -21 63 -27 100 -28 175 -1 88 1 100 32 162 43
87 138 177 219 208 74 28 193 25 265 -8 57 -25 141 -101 173 -157 63 -110 84
-279 44 -362 -41 -85 -156 -153 -258 -153 -103 0 -128 67 -71 190 l30 65 -30
-35 c-98 -114 -92 -235 14 -275 67 -26 192 -17 268 17 67 31 140 95 174 154
36 62 57 173 49 263 -20 212 -109 373 -263 474 -108 72 -167 90 -307 93 -66 2
-136 -1 -156 -6z m-162 -299 c-108 -100 -152 -230 -144 -426 8 -186 53 -329
163 -516 179 -306 321 -665 274 -694 -6 -3 -10 4 -10 17 -1 77 -148 434 -248
600 -107 179 -160 312 -189 473 -19 113 -13 254 16 346 26 83 89 178 143 218
59 44 58 38 -5 -18z m63 -45 c0 -16 -18 -31 -27 -22 -8 8 5 36 17 36 5 0 10
-6 10 -14z m-80 -96 c0 -11 -6 -20 -14 -20 -18 0 -29 16 -21 30 11 18 35 11
35 -10z m-47 -96 c9 -10 -4 -34 -19 -34 -8 0 -14 9 -14 20 0 19 19 27 33 14z
m7 -129 c26 -31 -18 -71 -47 -43 -12 12 -13 20 -4 37 14 25 34 27 51 6z m29
-139 c17 -20 2 -46 -25 -46 -29 0 -41 24 -24 45 16 19 34 19 49 1z m1721 -16
c0 -11 -4 -20 -10 -20 -5 0 -10 9 -10 20 0 11 5 20 10 20 6 0 10 -9 10 -20z
m-10 -95 c0 -14 -4 -25 -10 -25 -11 0 -14 33 -3 43 11 11 13 8 13 -18z m-1666
-17 c21 -30 4 -60 -32 -56 -30 3 -42 39 -22 64 17 20 36 17 54 -8z m1636 -67
c0 -22 -15 -35 -30 -26 -7 4 -7 13 0 26 14 25 30 25 30 0z m-1555 -81 c15 -17
16 -24 7 -46 -10 -20 -18 -25 -44 -22 -40 4 -56 28 -40 62 14 32 51 35 77 6z
m1485 -4 c0 -16 -27 -29 -41 -20 -13 8 9 34 27 34 8 0 14 -6 14 -14z m-103
-53 c6 -17 -30 -34 -48 -22 -12 8 -11 12 6 24 21 16 37 15 42 -2z m-122 -33
c0 -18 -52 -27 -67 -12 -17 17 2 33 35 30 20 -2 32 -8 32 -18z m82 -36 c-3 -3
-12 -4 -19 -1 -8 3 -5 6 6 6 11 1 17 -2 13 -5z m-44 -11 c-7 -2 -21 -2 -30 0
-10 3 -4 5 12 5 17 0 24 -2 18 -5z m-95 -10 c-21 -2 -57 -2 -80 0 -24 2 -7 4
37 4 44 0 63 -2 43 -4z m-1100 -52 c4 -28 -14 -51 -42 -51 -30 0 -46 18 -46
52 0 55 80 54 88 -1z m113 -172 c18 -34 -3 -69 -41 -69 -22 0 -33 6 -41 24
-16 35 3 66 41 66 20 0 33 -7 41 -21z m84 -196 c-4 -10 -12 -30 -17 -45 -15
-43 -58 -30 -58 17 0 29 19 45 53 45 24 0 28 -3 22 -17z m-315 -238 c0 -8 -4
-15 -9 -15 -13 0 -22 16 -14 24 11 11 23 6 23 -9z m-75 -34 c7 -12 -12 -24
-25 -16 -11 7 -4 25 10 25 5 0 11 -4 15 -9z m-71 -56 c3 -9 -1 -18 -10 -22
-19 -7 -28 2 -21 22 8 19 23 19 31 0z m-48 -94 c-9 -14 -33 -14 -41 -1 -4 6
-1 18 6 26 11 13 14 13 27 0 8 -8 11 -19 8 -25z m-26 -67 c11 -12 10 -18 -3
-32 -16 -15 -18 -15 -34 0 -13 14 -14 20 -3 32 7 9 16 16 20 16 4 0 13 -7 20
-16z"/>
</g>
</svg>
