<svg width="60" height="60" xmlns="http://www.w3.org/2000/svg" version="1.0"><path stroke="null" d="M35.908 6.01c-2.647.742-4.899 2.948-5.2 5.107l-.14.93.371-1.022c.999-2.694 4.574-4.435 7.64-3.762 2.39.534 4.062 2.694 4.062 5.27 0 1.162-.766 3.344-1.671 4.76l-.836 1.3-1.602.14c-5.875.488-12.074 5.387-14.837 11.748-.975 2.183-.998 2.786-.093 1.417 1.672-2.531 5.317-5.573 8.243-6.873 1.184-.51 3.761-1.23 4.435-1.254.139 0-.093.883-.558 2.02-.766 1.858-.836 2.23-.812 4.25 0 3.435 1.23 6.152 4.341 9.774l1.51 1.765-.674.65c-.627.603-.72.627-1.695.394-.557-.139-2.763-.418-4.875-.627-2.136-.185-4.365-.464-4.946-.58-2.275-.51-3.808-1.463-4.992-3.088-.859-1.207-.859-.86.023.673 1.58 2.763 3.344 3.6 11.68 5.433l2.251.511-.65.836c-1.16 1.463-2.298 3.367-2.949 4.945-.348.813-.65 1.51-.696 1.556-.023.023-.627-.209-1.323-.534-3.367-1.532-8.034-.743-12.05 1.997-.93.65-1.974 1.323-2.322 1.509-.813.418-3.251.418-4.226 0-1.602-.65-3.761-3.97-4.319-6.617-.487-2.345.14-4.156 1.835-5.317 2.112-1.44 5.479.58 5.758 3.436.116 1.37-.302 2.183-1.417 2.693l-.743.349.697-.14c2.182-.44 3.065-2.321 2.322-4.875-.511-1.788-2.461-3.831-4.133-4.273-3.135-.882-6.548 1.022-7.871 4.365-.766 1.95-.72 5.503.116 8.034.79 2.415 2.066 4.504 3.576 5.944l1.207 1.137H21.86l1.927-.975c2.438-1.23 4.203-1.44 5.503-.65.464.279.998.766 1.207 1.068l.348.557 8.754-.046 8.73-.07.07-1.695c.069-1.973-.442-5.317-1.115-7.058-.325-.882-.395-1.277-.21-1.509.442-.51.628-.348 1.139 1.022.789 2.043 1.393 5.316 1.393 7.43 0 1.903 0 1.926.58 1.926.441 0 .58-.116.58-.464 0-.673 1.022-1.625 1.742-1.625s1.741.952 1.741 1.625c0 .79.627.534.79-.348.232-1.208-.256-5.201-.929-7.5-.604-2.112-1.834-4.945-2.67-6.106l-.464-.673.835-1.393c2.23-3.669 3.135-6.687 3.135-10.379 0-2.856-.441-4.736-1.649-7.058-1.625-3.135-4.62-5.619-8.126-6.757l-1.532-.487.603-1.417c.511-1.23.604-1.74.604-3.97 0-2.902-.348-3.993-1.834-5.642-1.58-1.741-4.551-2.484-7.105-1.788zm7.662 5.92a.233.233 0 0 1-.232.232.25.25 0 0 1-.232-.232c0-.14.116-.232.232-.232.14 0 .232.093.232.232zm-.116 2.53c.07.117.023.28-.116.372-.116.07-.232-.023-.232-.209 0-.418.139-.487.348-.162zm-.58 1.65a.233.233 0 0 1-.233.231.25.25 0 0 1-.232-.232c0-.139.116-.232.232-.232.14 0 .232.093.232.232zm-.465 1.508c0 .186-.209.349-.464.349s-.465-.163-.465-.349.21-.348.465-.348.464.163.464.348zm-4.249 6.757c.163.418-.395.882-.72.557-.255-.255-.023-.929.325-.929.14 0 .302.163.395.372zm4.272.441c3.483 1.788 5.015 5.015 4.063 8.707-.394 1.509-1.09 2.902-1.973 3.947l-.488.58-1.764-1.857c-2.299-2.438-3.413-4.597-3.39-6.664 0-2.182 1.207-5.293 2.043-5.293.186 0 .86.255 1.51.58zm-4.76 1.532c.07.14-.023.418-.232.627-.348.349-.394.349-.743 0-.44-.44-.255-.882.372-.882.232 0 .51.116.604.255zm-.487 2.763c0 .697-.813.93-1.277.349-.232-.279-.232-.418 0-.697.464-.58 1.277-.348 1.277.348zm.604 2.787c.859.464.418 1.857-.604 1.857-.279 0-.604-.116-.766-.279-.58-.58-.186-1.81.603-1.81.163 0 .511.115.767.232zm1.787 3.76c.163.163.28.488.28.767s-.117.604-.28.766c-.162.163-.487.279-.766.279-.278 0-.603-.116-.766-.279-.162-.162-.279-.487-.279-.766s.117-.604.28-.766c.162-.163.487-.279.765-.279.279 0 .604.116.766.279zm3.065 3.321c.21.256.14.488-.348 1.161-.743.952-1.138 1.022-1.648.232-.349-.534-.349-.627 0-1.16.44-.65 1.532-.79 1.996-.233zm8.01 8.498c.21.65-.557 1.695-1.323 1.788-.325.046-.72-.116-.929-.349-.371-.394-.348-.487.418-1.416.674-.812.906-.929 1.254-.743.232.14.51.465.58.72zm-21.476 4.806c.952.79-.348 1.672-1.765 1.207-.952-.325-1.137-.812-.487-1.277.673-.464 1.625-.44 2.252.07zm23.45.047c.255.255.464.673.464.928 0 .604-.789 1.393-1.44 1.393-1.16 0-1.764-1.462-.951-2.368.488-.557 1.347-.534 1.927.046zm-27.165.928c0 .418-1.254 1.184-1.834 1.115-.465-.047-.604-.21-.604-.65 0-.465.163-.627.813-.836.812-.279 1.625-.093 1.625.371zm7.406.093c.21.21.256.557.163.952-.14.557-.232.627-.882.488-1.254-.256-2.113-1.486-1.277-1.858.44-.186 1.625.07 1.996.418zm11.818 4.388-.07 2.136-.464-.928c-.534-1.115-.603-3.785-.116-4.876l.302-.697.21 1.115c.115.627.162 2.09.138 3.25zm-23.543-3.18c.952.37.116 1.485-1.114 1.485-.836 0-.813-.812.046-1.253.767-.418.627-.395 1.068-.233zm10.17 1.09c.905.465 1.486.93 1.555 1.208.07.441.047.441-.348.07-.79-.697-2.74-1.556-3.924-1.695-1.323-.163-3.041.255-6.686 1.602-2.253.836-4.25 1.068-5.317.65-.233-.093.464-.163 1.509-.163 1.579 0 2.182-.116 3.529-.673 3.575-1.486 4.597-1.765 6.431-1.765 1.556 0 1.95.093 3.25.767zm-13.443.744c.023.116-.233.255-.58.301-.372.047-.651-.023-.651-.162 0-.464 1.138-.604 1.23-.14zm-1.95.72c.324.278-.442.023-.813-.28-.418-.324-.418-.324.139-.069.325.14.627.302.673.348z"/></svg>