<?xml version="1.0" standalone="no"?>
<!DOCTYPE svg PUBLIC "-//W3C//DTD SVG 20010904//EN"
 "http://www.w3.org/TR/2001/REC-SVG-20010904/DTD/svg10.dtd">
<svg version="1.0" xmlns="http://www.w3.org/2000/svg"
 width="800" height="800" viewBox="0 0 800 800"
 preserveAspectRatio="xMidYMid meet">

<g transform="translate(0,800) scale(0.1,-0.1)"
fill="#000000" stroke="none">
<path d="M2710 5155 c-114 -32 -211 -127 -224 -220 l-6 -40 16 44 c43 116 197
191 329 162 103 -23 175 -116 175 -227 0 -50 -33 -144 -72 -205 l-36 -56 -69
-6 c-253 -21 -520 -232 -639 -506 -42 -94 -43 -120 -4 -61 72 109 229 240 355
296 51 22 162 53 191 54 6 0 -4 -38 -24 -87 -33 -80 -36 -96 -35 -183 0 -148
53 -265 187 -421 l65 -76 -29 -28 c-27 -26 -31 -27 -73 -17 -24 6 -119 18
-210 27 -92 8 -188 20 -213 25 -98 22 -164 63 -215 133 -37 52 -37 37 1 -29
68 -119 144 -155 503 -234 l97 -22 -28 -36 c-50 -63 -99 -145 -127 -213 -15
-35 -28 -65 -30 -67 -1 -1 -27 9 -57 23 -145 66 -346 32 -519 -86 -40 -28 -85
-57 -100 -65 -35 -18 -140 -18 -182 0 -69 28 -162 171 -186 285 -21 101 6 179
79 229 91 62 236 -25 248 -148 5 -59 -13 -94 -61 -116 l-32 -15 30 6 c94 19
132 100 100 210 -22 77 -106 165 -178 184 -135 38 -282 -44 -339 -188 -33 -84
-31 -237 5 -346 34 -104 89 -194 154 -256 l52 -49 248 0 248 0 83 42 c105 53
181 62 237 28 20 -12 43 -33 52 -46 l15 -24 377 2 376 3 3 73 c3 85 -19 229
-48 304 -14 38 -17 55 -9 65 19 22 27 15 49 -44 34 -88 60 -229 60 -320 0 -82
0 -83 25 -83 19 0 25 5 25 20 0 29 44 70 75 70 31 0 75 -41 75 -70 0 -34 27
-23 34 15 10 52 -11 224 -40 323 -26 91 -79 213 -115 263 l-20 29 36 60 c96
158 135 288 135 447 0 123 -19 204 -71 304 -70 135 -199 242 -350 291 l-66 21
26 61 c22 53 26 75 26 171 0 125 -15 172 -79 243 -68 75 -196 107 -306 77z
m330 -255 c0 -5 -4 -10 -10 -10 -5 0 -10 5 -10 10 0 6 5 10 10 10 6 0 10 -4
10 -10z m-5 -109 c3 -5 1 -12 -5 -16 -5 -3 -10 1 -10 9 0 18 6 21 15 7z m-25
-71 c0 -5 -4 -10 -10 -10 -5 0 -10 5 -10 10 0 6 5 10 10 10 6 0 10 -4 10 -10z
m-20 -65 c0 -8 -9 -15 -20 -15 -11 0 -20 7 -20 15 0 8 9 15 20 15 11 0 20 -7
20 -15z m-183 -291 c7 -18 -17 -38 -31 -24 -11 11 -1 40 14 40 6 0 13 -7 17
-16z m184 -19 c150 -77 216 -216 175 -375 -17 -65 -47 -125 -85 -170 l-21 -25
-76 80 c-99 105 -147 198 -146 287 0 94 52 228 88 228 8 0 37 -11 65 -25z
m-205 -66 c3 -6 -1 -18 -10 -27 -15 -15 -17 -15 -32 0 -19 19 -11 38 16 38 10
0 22 -5 26 -11z m-21 -119 c0 -30 -35 -40 -55 -15 -10 12 -10 18 0 30 20 25
55 15 55 -15z m26 -120 c37 -20 18 -80 -26 -80 -12 0 -26 5 -33 12 -25 25 -8
78 26 78 7 0 22 -5 33 -10z m77 -162 c7 -7 12 -21 12 -33 0 -12 -5 -26 -12
-33 -7 -7 -21 -12 -33 -12 -12 0 -26 5 -33 12 -7 7 -12 21 -12 33 0 12 5 26
12 33 7 7 21 12 33 12 12 0 26 -5 33 -12z m132 -143 c9 -11 6 -21 -15 -50 -32
-41 -49 -44 -71 -10 -15 23 -15 27 0 50 19 28 66 34 86 10z m345 -366 c9 -28
-24 -73 -57 -77 -14 -2 -31 5 -40 15 -16 17 -15 21 18 61 29 35 39 40 54 32
10 -6 22 -20 25 -31z m-925 -207 c41 -34 -15 -72 -76 -52 -41 14 -49 35 -21
55 29 20 70 19 97 -3z m1010 -2 c11 -11 20 -29 20 -40 0 -26 -34 -60 -62 -60
-50 0 -76 63 -41 102 21 24 58 23 83 -2z m-1170 -40 c0 -18 -54 -51 -79 -48
-20 2 -26 9 -26 28 0 20 7 27 35 36 35 12 70 4 70 -16z m319 -4 c9 -9 11 -24
7 -41 -6 -24 -10 -27 -38 -21 -54 11 -91 64 -55 80 19 8 70 -3 86 -18z m509
-189 l-3 -92 -20 40 c-23 48 -26 163 -5 210 l13 30 9 -48 c5 -27 7 -90 6 -140z
m-1014 137 c41 -16 5 -64 -48 -64 -36 0 -35 35 2 54 33 18 27 17 46 10z m438
-47 c39 -20 64 -40 67 -52 3 -19 2 -19 -15 -3 -34 30 -118 67 -169 73 -57 7
-131 -11 -288 -69 -97 -36 -183 -46 -229 -28 -10 4 20 7 65 7 68 0 94 5 152
29 154 64 198 76 277 76 67 0 84 -4 140 -33z m-579 -32 c1 -5 -10 -11 -25 -13
-16 -2 -28 1 -28 7 0 20 49 26 53 6z m-84 -31 c14 -12 -19 -1 -35 12 -18 14
-18 14 6 3 14 -6 27 -13 29 -15z"/>
</g>
</svg>
