<svg width="60" height="60" xmlns="http://www.w3.org/2000/svg" version="1.0"><path stroke="null" d="M18.266 13.69c-4.608 1.174-8.713 5.007-10.158 9.51-1.802 5.613-.147 12.4 5.257 21.699.9 1.55 2.094 3.77 2.66 4.922l1.026 2.094-.712.23c-3.268 1.132-5.53 3.687-5.927 6.745L10.264 60l1.13-.063 1.132-.063.147-1.005c.167-1.236.837-2.64 1.57-3.31.503-.44.482-.418-.104.336-.775.984-1.299 2.367-1.299 3.393 0 1.005.482.796.67-.314.084-.461.273-1.11.44-1.445.712-1.34 3.351-3.142 3.75-2.535.397.608-.482 3.75-1.215 4.378-.168.125-.294.314-.294.419s2.681.188 5.949.188h5.927l1.717-3.686c1.906-4.105 2.89-5.886 4.336-7.813 2.325-3.079 5.739-4.859 8.755-4.524 1.32.147 3.142.754 3.812 1.257.21.168-.147.084-.796-.21-5.32-2.387-10.284.42-14.054 7.96-1.215 2.43-3.079 6.576-3.079 6.828 0 .125.482.188 1.09.146l1.088-.063.482-1.235c.252-.67.524-1.278.566-1.32.063-.063.9.23 1.864.65 2.618 1.13 4.545 1.507 6.179 1.214 1.759-.293 2.89-1.047 3.434-2.283 1.069-2.409-.418-4.817-3.225-5.194l-.9-.126 1.11.398c1.864.67 2.68 1.76 2.492 3.33-.23 2.158-2.493 3.1-5.404 2.241-.942-.272-3.54-1.508-4.545-2.136-.377-.251.084-1.424.587-1.57.523-.147 1.277-1.383 1.214-2.032-.063-.713.21-1.09 1.131-1.508.65-.315 1.718-1.634 1.299-1.634-.084 0-.021-.126.105-.293.125-.147.628-.336 1.089-.42.565-.083 1.089-.376 1.592-.858.418-.398.858-.733.984-.754.984-.063 2.01-.168 2.576-.293.524-.126.796-.042 1.236.293.335.272.859.44 1.34.44 1.55 0 3.498 2.325 4.294 5.11.293 1.006.356 1.802.272 3.875l-.104 2.64.712-1.467c2.22-4.713 1.508-9.781-1.885-13.174-1.257-1.236-3.603-2.64-4.42-2.64-.21 0-.293-.104-.23-.209.063-.125.293-.21.482-.21.754 0 3.037-1.298 4.147-2.324 2.052-1.948 3.016-4.252 3.016-7.226 0-3.854-2.095-7.289-5.404-8.839-1.068-.502-1.445-.565-3.414-.565-2.115 0-2.262.02-3.77.775-3.435 1.696-5.362 4.88-4.587 7.603.335 1.193 1.655 2.722 2.64 3.037 1.57.523 3.832.083 4.649-.901.147-.168-.147-.105-.733.189-1.843.942-3.854.44-4.943-1.215-1.445-2.241-.084-5.237 3.12-6.765 1.048-.524 1.509-.608 3.017-.629 1.592 0 1.906.063 2.911.629 1.278.712 2.325 1.885 2.995 3.372.712 1.57.65 3.958-.126 5.697-.67 1.445-1.8 2.597-3.141 3.204-.482.21-1.927.482-3.205.629-1.885.209-2.304.314-2.22.565.105.251-.105.272-1.34.147-1.131-.105-1.844-.042-3.289.293-1.005.251-1.969.524-2.136.607-.168.084 1.13.147 2.89.126l3.205-.042-3.142.168c-3.498.188-5.152.586-6.89 1.675-1.404.9-3.352 2.786-4.462 4.336-.524.733-.963 1.32-1.005 1.32-.042 0-.398-.587-.817-1.32-.398-.712-1.78-2.912-3.058-4.86-2.493-3.832-4.252-7.163-5.153-9.843-.44-1.32-.565-2.095-.586-3.666-.021-1.843.02-2.094.67-3.393.9-1.822 2.89-3.707 4.587-4.356 1.55-.587 4.042-.524 5.55.167 1.194.524 2.954 2.116 3.624 3.288 1.32 2.304 1.76 5.844.922 7.583-.86 1.78-3.268 3.204-5.404 3.204-2.158 0-2.681-1.403-1.487-3.98l.628-1.36-.628.732c-2.053 2.388-1.927 4.922.293 5.76 1.403.545 4.021.356 5.613-.356 1.403-.65 2.932-1.99 3.645-3.226.754-1.298 1.193-3.623 1.026-5.508-.42-4.44-2.283-7.812-5.509-9.928-2.262-1.508-3.497-1.885-6.43-1.948-1.382-.042-2.848.021-3.267.126zm-3.393 6.263c-2.262 2.095-3.184 4.818-3.016 8.923.167 3.896 1.11 6.89 3.414 10.807 3.749 6.41 6.723 13.929 5.739 14.536-.126.063-.21-.084-.21-.356-.02-1.613-3.1-9.09-5.194-12.567-2.241-3.749-3.351-6.535-3.959-9.907-.398-2.366-.272-5.32.335-7.247.545-1.738 1.864-3.728 2.995-4.566 1.236-.921 1.215-.795-.104.377zm1.32.943c0 .335-.378.65-.566.46-.168-.167.104-.753.356-.753.105 0 .21.125.21.293zm-1.676 2.01c0 .231-.126.42-.294.42-.377 0-.607-.336-.44-.629.231-.377.734-.23.734.21zm-.985 2.011c.189.21-.084.713-.398.713-.167 0-.293-.189-.293-.42 0-.397.398-.565.691-.293zm.147 2.702c.544.65-.377 1.487-.985.9-.25-.25-.272-.418-.083-.774.293-.524.712-.566 1.068-.126zm.607 2.912c.356.419.042.963-.523.963-.608 0-.86-.503-.503-.942.335-.398.712-.398 1.026-.021zm36.046.335c0 .23-.083.419-.21.419-.104 0-.209-.189-.209-.42s.105-.418.21-.418c.126 0 .21.188.21.419zm-.21 1.99c0 .293-.083.523-.209.523-.23 0-.293-.691-.062-.9.23-.23.272-.168.272.376zm-34.893.356c.44.628.084 1.256-.67 1.172-.629-.062-.88-.816-.461-1.34.356-.419.754-.356 1.13.168zm34.266 1.403c0 .46-.315.733-.629.544-.146-.083-.146-.272 0-.544.293-.524.629-.524.629 0zm-32.57 1.696c.314.356.335.503.147.964-.21.419-.377.523-.922.46-.837-.083-1.173-.586-.837-1.298.293-.67 1.068-.733 1.612-.126zm31.103.084c0 .335-.565.608-.858.42-.273-.168.188-.713.565-.713.168 0 .293.126.293.293zm-2.157 1.11c.126.356-.628.712-1.005.461-.252-.168-.23-.251.125-.503.44-.335.775-.314.88.042zm-2.555.691c0 .377-1.09.566-1.403.252-.357-.356.041-.691.733-.629.418.042.67.168.67.377zm1.717.754c-.063.063-.251.084-.398.021-.167-.062-.104-.125.126-.125.23-.021.356.042.272.104zm-.921.23c-.147.043-.44.043-.629 0-.21-.062-.083-.104.252-.104.356 0 .502.042.377.105zm-1.99.21c-.44.042-1.194.042-1.676 0-.502-.042-.146-.084.775-.084s1.32.042.901.084zm-23.04 1.09c.084.586-.293 1.068-.879 1.068-.628 0-.963-.377-.963-1.09 0-1.152 1.675-1.13 1.843.021zm2.367 3.602c.377.712-.062 1.445-.858 1.445-.461 0-.692-.126-.86-.503-.334-.733.064-1.382.86-1.382.419 0 .69.147.858.44zm1.76 4.105c-.084.21-.252.628-.356.943-.314.9-1.215.628-1.215-.356 0-.608.398-.943 1.11-.943.503 0 .586.063.46.356zm-6.598 4.985c0 .168-.084.314-.188.314-.273 0-.461-.335-.294-.503.23-.23.482-.125.482.189zm-1.57.712c.146.251-.252.503-.524.335-.23-.146-.084-.523.21-.523.104 0 .23.083.313.188zm-1.488 1.173a.365.365 0 0 1-.21.46c-.397.147-.586-.041-.44-.46.168-.398.483-.398.65 0zm-1.005 1.969c-.189.293-.691.293-.859.02-.084-.125-.02-.376.126-.544.23-.272.293-.272.565 0 .168.168.23.398.168.524zm-.545 1.403c.23.251.21.377-.063.67-.335.315-.377.315-.712 0-.272-.293-.293-.419-.062-.67.146-.188.335-.335.418-.335.084 0 .273.147.42.335z"/></svg>